<svg width="612" height="612" viewBox="0 0 612 612" fill="none" xmlns="http://www.w3.org/2000/svg">
<g filter="url(#filter0_d_38_2)">
<g clip-path="url(#clip0_38_2)">
<circle cx="306.352" cy="296.129" r="294.976" fill="black" stroke="white" stroke-width="2.36928"/>
<line x1="296.671" y1="95.7074" x2="358.506" y2="-5.33817" stroke="white" stroke-width="30.2083"/>
<path d="M209.381 593.27L335.291 1.87243H407.785L531.788 593.27H481.233L450.709 449.236L461.201 458.775H279.013L287.598 449.236L258.982 593.27H209.381ZM288.552 425.389L283.782 419.666H457.386L450.709 425.389L381.077 63.8738L379.169 57.1967H362.953L361.045 63.8738L288.552 425.389Z" fill="#FF0000"/>
<path d="M292.026 504.896L173.325 278.705L284.772 86.8052L310.491 102.632L208.276 276.727L322.361 489.729L292.026 504.896ZM128.482 90.1025H162.774V498.961H128.482V90.1025Z" fill="white"/>
<line x1="307.095" y1="496.479" x2="360.268" y2="602.339" stroke="white" stroke-width="33.8807"/>
<line x1="145.6" y1="91.8008" x2="145.6" y2="-26.6633" stroke="white" stroke-width="34.3546"/>
<line x1="145.6" y1="618.959" x2="145.6" y2="459.489" stroke="white" stroke-width="34.3546"/>
</g>
<rect x="10.9503" y="1.83894" width="589.951" height="589.951" rx="294.976" stroke="#FFFBFB" stroke-width="2.36928" shape-rendering="crispEdges"/>
</g>
<defs>
<filter id="filter0_d_38_2" x="0.288502" y="0.654297" width="611.275" height="611.275" filterUnits="userSpaceOnUse" color-interpolation-filters="sRGB">
<feFlood flood-opacity="0" result="BackgroundImageFix"/>
<feColorMatrix in="SourceAlpha" type="matrix" values="0 0 0 0 0 0 0 0 0 0 0 0 0 0 0 0 0 0 127 0" result="hardAlpha"/>
<feOffset dy="9.47712"/>
<feGaussianBlur stdDeviation="4.73856"/>
<feComposite in2="hardAlpha" operator="out"/>
<feColorMatrix type="matrix" values="0 0 0 0 0 0 0 0 0 0 0 0 0 0 0 0 0 0 0.25 0"/>
<feBlend mode="normal" in2="BackgroundImageFix" result="effect1_dropShadow_38_2"/>
<feBlend mode="normal" in="SourceGraphic" in2="effect1_dropShadow_38_2" result="shape"/>
</filter>
<clipPath id="clip0_38_2">
<rect x="9.76562" y="0.654297" width="592.32" height="592.32" rx="296.16" fill="white"/>
</clipPath>
</defs>
</svg>
